<svg id="visual" viewBox="0 0 900 600" width="900" height="600" xmlns="http://www.w3.org/2000/svg" xmlns:xlink="http://www.w3.org/1999/xlink" version="1.1"><g stroke-width="1" stroke-linejoin="bevel"><path d="M393 324L282 321L320 411Z" fill="#281d16" stroke="#281d16"></path><path d="M282 321L238 338L320 411Z" fill="#954d1a" stroke="#954d1a"></path><path d="M320 411L418 435L393 324Z" fill="#131313" stroke="#131313"></path><path d="M393 324L363 212L282 321Z" fill="#954d1a" stroke="#954d1a"></path><path d="M282 321L202 225L238 338Z" fill="#522f19" stroke="#522f19"></path><path d="M363 212L278 217L282 321Z" fill="#f7770f" stroke="#f7770f"></path><path d="M301 512L363 513L320 411Z" fill="#c56217" stroke="#c56217"></path><path d="M320 411L363 513L418 435Z" fill="#281d16" stroke="#281d16"></path><path d="M226 508L301 512L320 411Z" fill="#7e431a" stroke="#7e431a"></path><path d="M529 333L467 237L393 324Z" fill="#f7770f" stroke="#f7770f"></path><path d="M393 324L467 237L363 212Z" fill="#ad5719" stroke="#ad5719"></path><path d="M494 521L513 379L418 435Z" fill="#de6c14" stroke="#de6c14"></path><path d="M418 435L513 379L393 324Z" fill="#f7770f" stroke="#f7770f"></path><path d="M139 291L164 398L238 338Z" fill="#c56217" stroke="#c56217"></path><path d="M238 338L164 398L320 411Z" fill="#68391a" stroke="#68391a"></path><path d="M278 217L202 225L282 321Z" fill="#281d16" stroke="#281d16"></path><path d="M164 398L226 508L320 411Z" fill="#954d1a" stroke="#954d1a"></path><path d="M513 379L529 333L393 324Z" fill="#68391a" stroke="#68391a"></path><path d="M202 225L139 291L238 338Z" fill="#68391a" stroke="#68391a"></path><path d="M278 217L211 129L202 225Z" fill="#954d1a" stroke="#954d1a"></path><path d="M202 225L126 179L139 291Z" fill="#522f19" stroke="#522f19"></path><path d="M363 212L289 128L278 217Z" fill="#de6c14" stroke="#de6c14"></path><path d="M360 89L289 128L363 212Z" fill="#c56217" stroke="#c56217"></path><path d="M437 600L494 521L363 513Z" fill="#7e431a" stroke="#7e431a"></path><path d="M363 513L494 521L418 435Z" fill="#131313" stroke="#131313"></path><path d="M513 379L603 339L529 333Z" fill="#131313" stroke="#131313"></path><path d="M139 291L107 384L164 398Z" fill="#954d1a" stroke="#954d1a"></path><path d="M66 539L161 600L226 508Z" fill="#f7770f" stroke="#f7770f"></path><path d="M226 508L309 600L301 512Z" fill="#ad5719" stroke="#ad5719"></path><path d="M301 512L309 600L363 513Z" fill="#7e431a" stroke="#7e431a"></path><path d="M161 600L309 600L226 508Z" fill="#c56217" stroke="#c56217"></path><path d="M289 128L211 129L278 217Z" fill="#7e431a" stroke="#7e431a"></path><path d="M472 110L360 89L363 212Z" fill="#f7770f" stroke="#f7770f"></path><path d="M289 128L194 0L211 129Z" fill="#3d2617" stroke="#3d2617"></path><path d="M621 403L603 339L513 379Z" fill="#de6c14" stroke="#de6c14"></path><path d="M529 333L562 175L467 237Z" fill="#c56217" stroke="#c56217"></path><path d="M467 237L472 110L363 212Z" fill="#522f19" stroke="#522f19"></path><path d="M309 600L437 600L363 513Z" fill="#954d1a" stroke="#954d1a"></path><path d="M211 129L126 179L202 225Z" fill="#281d16" stroke="#281d16"></path><path d="M139 291L0 324L107 384Z" fill="#c56217" stroke="#c56217"></path><path d="M562 175L472 110L467 237Z" fill="#954d1a" stroke="#954d1a"></path><path d="M603 339L562 175L529 333Z" fill="#c56217" stroke="#c56217"></path><path d="M602 477L621 403L513 379Z" fill="#c56217" stroke="#c56217"></path><path d="M696 231L597 114L562 175Z" fill="#954d1a" stroke="#954d1a"></path><path d="M602 477L513 379L494 521Z" fill="#131313" stroke="#131313"></path><path d="M518 600L602 477L494 521Z" fill="#954d1a" stroke="#954d1a"></path><path d="M66 539L226 508L164 398Z" fill="#3d2617" stroke="#3d2617"></path><path d="M437 600L518 600L494 521Z" fill="#ad5719" stroke="#ad5719"></path><path d="M0 514L66 539L107 384Z" fill="#954d1a" stroke="#954d1a"></path><path d="M107 384L66 539L164 398Z" fill="#68391a" stroke="#68391a"></path><path d="M66 539L115 600L161 600Z" fill="#3d2617" stroke="#3d2617"></path><path d="M211 129L105 111L126 179Z" fill="#7e431a" stroke="#7e431a"></path><path d="M0 181L0 324L139 291Z" fill="#3d2617" stroke="#3d2617"></path><path d="M194 0L105 111L211 129Z" fill="#522f19" stroke="#522f19"></path><path d="M0 181L139 291L126 179Z" fill="#954d1a" stroke="#954d1a"></path><path d="M0 324L0 383L107 384Z" fill="#de6c14" stroke="#de6c14"></path><path d="M602 477L678 413L621 403Z" fill="#131313" stroke="#131313"></path><path d="M621 403L678 413L603 339Z" fill="#281d16" stroke="#281d16"></path><path d="M662 500L678 413L602 477Z" fill="#ad5719" stroke="#ad5719"></path><path d="M462 0L361 0L360 89Z" fill="#281d16" stroke="#281d16"></path><path d="M360 89L311 0L289 128Z" fill="#3d2617" stroke="#3d2617"></path><path d="M462 0L360 89L472 110Z" fill="#ad5719" stroke="#ad5719"></path><path d="M361 0L311 0L360 89Z" fill="#522f19" stroke="#522f19"></path><path d="M689 270L562 175L603 339Z" fill="#522f19" stroke="#522f19"></path><path d="M562 175L597 114L472 110Z" fill="#ad5719" stroke="#ad5719"></path><path d="M614 600L662 500L602 477Z" fill="#954d1a" stroke="#954d1a"></path><path d="M678 413L689 270L603 339Z" fill="#ad5719" stroke="#ad5719"></path><path d="M604 0L462 0L472 110Z" fill="#ad5719" stroke="#ad5719"></path><path d="M518 600L614 600L602 477Z" fill="#f7770f" stroke="#f7770f"></path><path d="M0 383L0 514L107 384Z" fill="#281d16" stroke="#281d16"></path><path d="M66 539L0 600L115 600Z" fill="#c56217" stroke="#c56217"></path><path d="M105 111L0 181L126 179Z" fill="#522f19" stroke="#522f19"></path><path d="M689 270L696 231L562 175Z" fill="#7e431a" stroke="#7e431a"></path><path d="M763 280L696 231L689 270Z" fill="#7e431a" stroke="#7e431a"></path><path d="M311 0L194 0L289 128Z" fill="#de6c14" stroke="#de6c14"></path><path d="M105 111L0 77L0 181Z" fill="#c56217" stroke="#c56217"></path><path d="M0 514L0 600L66 539Z" fill="#954d1a" stroke="#954d1a"></path><path d="M194 0L88 0L105 111Z" fill="#3d2617" stroke="#3d2617"></path><path d="M823 404L763 280L678 413Z" fill="#522f19" stroke="#522f19"></path><path d="M678 413L763 280L689 270Z" fill="#68391a" stroke="#68391a"></path><path d="M694 82L604 0L597 114Z" fill="#ad5719" stroke="#ad5719"></path><path d="M614 600L691 600L662 500Z" fill="#522f19" stroke="#522f19"></path><path d="M816 487L823 404L678 413Z" fill="#3d2617" stroke="#3d2617"></path><path d="M88 0L0 77L105 111Z" fill="#7e431a" stroke="#7e431a"></path><path d="M694 82L597 114L696 231Z" fill="#f7770f" stroke="#f7770f"></path><path d="M597 114L604 0L472 110Z" fill="#c56217" stroke="#c56217"></path><path d="M774 192L694 82L696 231Z" fill="#131313" stroke="#131313"></path><path d="M763 280L774 192L696 231Z" fill="#f7770f" stroke="#f7770f"></path><path d="M88 0L0 0L0 77Z" fill="#ad5719" stroke="#ad5719"></path><path d="M816 487L678 413L662 500Z" fill="#c56217" stroke="#c56217"></path><path d="M763 280L900 236L774 192Z" fill="#ad5719" stroke="#ad5719"></path><path d="M691 600L761 600L662 500Z" fill="#281d16" stroke="#281d16"></path><path d="M761 600L816 487L662 500Z" fill="#ad5719" stroke="#ad5719"></path><path d="M900 236L782 100L774 192Z" fill="#f7770f" stroke="#f7770f"></path><path d="M774 192L782 100L694 82Z" fill="#7e431a" stroke="#7e431a"></path><path d="M694 82L722 0L604 0Z" fill="#3d2617" stroke="#3d2617"></path><path d="M782 100L722 0L694 82Z" fill="#131313" stroke="#131313"></path><path d="M900 478L900 371L823 404Z" fill="#de6c14" stroke="#de6c14"></path><path d="M823 404L900 313L763 280Z" fill="#c56217" stroke="#c56217"></path><path d="M900 478L823 404L816 487Z" fill="#281d16" stroke="#281d16"></path><path d="M900 371L900 313L823 404Z" fill="#c56217" stroke="#c56217"></path><path d="M900 313L900 236L763 280Z" fill="#522f19" stroke="#522f19"></path><path d="M782 100L832 0L722 0Z" fill="#131313" stroke="#131313"></path><path d="M900 600L900 478L816 487Z" fill="#c56217" stroke="#c56217"></path><path d="M900 69L832 0L782 100Z" fill="#954d1a" stroke="#954d1a"></path><path d="M761 600L900 600L816 487Z" fill="#131313" stroke="#131313"></path><path d="M900 236L900 69L782 100Z" fill="#522f19" stroke="#522f19"></path><path d="M900 69L900 0L832 0Z" fill="#ad5719" stroke="#ad5719"></path></g></svg>